<svg xmlns="http://www.w3.org/2000/svg" version="1.1" xmlns:xlink="http://www.w3.org/1999/xlink" xmlns:svgjs="http://svgjs.dev/svgjs" width="1920" height="1080" preserveAspectRatio="none" viewBox="0 0 1920 1080"><g mask="url(&quot;#SvgjsMask1002&quot;)" fill="none"><path d="M2200.59 563.31C1978.77 556.97 1740.41 259.07 1378.5 228.51 1016.58 197.95 1112.01-167.44 967.45-204.83" stroke="rgba(229, 231, 235, 1)" stroke-width="2"></path><path d="M1921.79 700.03C1714.76 689.25 1609.53 352.49 1183.7 322.03 757.87 291.57 664.82-137.9 445.61-158.44" stroke="rgba(229, 231, 235, 1)" stroke-width="2"></path><path d="M2055.6 738.54C1825.75 733.76 1584.13 468.73 1191 425.34 797.87 381.95 928.61-98.4 758.7-167.55" stroke="rgba(229, 231, 235, 1)" stroke-width="2"></path><path d="M1957.53 889.42C1729.7 887.62 1570.06 688.43 1074.83 662.62 579.61 636.81 467.79 22.56 192.14-14.99" stroke="rgba(229, 231, 235, 1)" stroke-width="2"></path><path d="M2284.48 645.74C2072.13 640.68 1932.66 364.26 1490.49 343.34 1048.33 322.42 927.86-119.29 696.51-137.55" stroke="rgba(229, 231, 235, 1)" stroke-width="2"></path></g><defs><mask id="SvgjsMask1002"><rect width="1920" height="1080" fill="#ffffff"></rect></mask></defs></svg>